<svg width="161" height="50" viewBox="0 0 161 50" fill="none" xmlns="http://www.w3.org/2000/svg">
<rect x="40" y="23.5" width="80" height="3" fill="#945C01"/>
<circle cx="25" cy="25" r="25" fill="#2AC868"/>
<circle cx="136" cy="25" r="25" fill="#2AC868"/>
<path d="M20.8864 30H19.4091L23.6818 18.3636H25.1364L29.4091 30H27.9318L24.4545 20.2045H24.3636L20.8864 30ZM21.4318 25.4545H27.3864V26.7045H21.4318V25.4545Z" fill="black"/>
<path d="M131.409 30V18.3636H135.477C136.288 18.3636 136.956 18.5038 137.483 18.7841C138.009 19.0606 138.402 19.4337 138.659 19.9034C138.917 20.3693 139.045 20.8864 139.045 21.4545C139.045 21.9545 138.956 22.3674 138.778 22.6932C138.604 23.0189 138.373 23.2765 138.085 23.4659C137.801 23.6553 137.492 23.7955 137.159 23.8864V24C137.515 24.0227 137.873 24.1477 138.233 24.375C138.593 24.6023 138.894 24.928 139.136 25.3523C139.379 25.7765 139.5 26.2955 139.5 26.9091C139.5 27.4924 139.367 28.017 139.102 28.483C138.837 28.9489 138.419 29.3182 137.847 29.5909C137.275 29.8636 136.53 30 135.614 30H131.409ZM132.818 28.75H135.614C136.534 28.75 137.188 28.572 137.574 28.2159C137.964 27.8561 138.159 27.4205 138.159 26.9091C138.159 26.5152 138.059 26.1515 137.858 25.8182C137.657 25.4811 137.371 25.2121 137 25.0114C136.629 24.8068 136.189 24.7045 135.682 24.7045H132.818V28.75ZM132.818 23.4773H135.432C135.856 23.4773 136.239 23.3939 136.58 23.2273C136.924 23.0606 137.197 22.8258 137.398 22.5227C137.602 22.2197 137.705 21.8636 137.705 21.4545C137.705 20.9432 137.527 20.5095 137.17 20.1534C136.814 19.7936 136.25 19.6136 135.477 19.6136H132.818V23.4773Z" fill="black"/>
<rect x="71" y="15" width="20" height="20" rx="8" fill="#945C01"/>
<path d="M80.8409 31.1591C80.1742 31.1591 79.5739 31.0265 79.0398 30.7614C78.5057 30.4962 78.0777 30.1326 77.7557 29.6705C77.4337 29.2083 77.2576 28.6818 77.2273 28.0909H78.5909C78.6439 28.6174 78.8826 29.053 79.3068 29.3977C79.7348 29.7386 80.2462 29.9091 80.8409 29.9091C81.3182 29.9091 81.7424 29.7973 82.1136 29.5739C82.4886 29.3504 82.7822 29.0436 82.9943 28.6534C83.2102 28.2595 83.3182 27.8144 83.3182 27.3182C83.3182 26.8106 83.2064 26.358 82.983 25.9602C82.7633 25.5587 82.4602 25.2424 82.0739 25.0114C81.6875 24.7803 81.2462 24.6629 80.75 24.6591C80.3939 24.6553 80.0284 24.7102 79.6534 24.8239C79.2784 24.9337 78.9697 25.0758 78.7273 25.25L77.4091 25.0909L78.1136 19.3636H84.1591V20.6136H79.2955L78.8864 24.0455H78.9545C79.1932 23.8561 79.4924 23.6989 79.8523 23.5739C80.2121 23.4489 80.5871 23.3864 80.9773 23.3864C81.6894 23.3864 82.3239 23.5568 82.8807 23.8977C83.4413 24.2348 83.8807 24.697 84.1989 25.2841C84.5208 25.8712 84.6818 26.5417 84.6818 27.2955C84.6818 28.0379 84.5152 28.7008 84.1818 29.2841C83.8523 29.8636 83.3977 30.322 82.8182 30.6591C82.2386 30.9924 81.5795 31.1591 80.8409 31.1591Z" fill="white"/>
</svg>
