<svg width="31" height="40" viewBox="0 0 31 40" fill="none" xmlns="http://www.w3.org/2000/svg">
<path d="M5.25071 13.1254C4.15676 13.1254 3.22691 12.7426 2.46114 11.9768C1.69538 11.211 1.3125 10.2812 1.3125 9.18723C1.3125 8.09329 1.69538 7.16343 2.46114 6.39767C3.22691 5.6319 4.15676 5.24902 5.25071 5.24902C6.23526 5.24902 7.09128 5.5608 7.81875 6.18435C8.54622 6.8079 8.98654 7.59007 9.13969 8.53086H13.7835C13.9695 8.53086 14.1254 8.59377 14.2512 8.71957C14.377 8.84537 14.4399 9.00126 14.4399 9.18723C14.4399 9.3732 14.377 9.52909 14.2512 9.65489C14.1254 9.7807 13.9695 9.8436 13.7835 9.8436H9.13969C8.98654 10.7844 8.54622 11.5666 7.81875 12.1901C7.09128 12.8137 6.23526 13.1254 5.25071 13.1254Z" fill="#2AC868"/>
<g clip-path="url(#clip0_2520_400)">
<path d="M5.25071 13.1245C4.15676 13.1245 3.22691 12.7416 2.46114 11.9758C1.69538 11.2101 1.3125 10.2802 1.3125 9.18626C1.3125 8.09231 1.69538 7.16245 2.46114 6.39669C3.22691 5.63093 4.15676 5.24805 5.25071 5.24805C6.23526 5.24805 7.09127 5.55982 7.81875 6.18337C8.54622 6.80692 8.98654 7.58909 9.13969 8.52989H13.7835C13.9695 8.52989 14.1254 8.59279 14.2512 8.71859C14.377 8.8444 14.4399 9.00029 14.4399 9.18626C14.4399 9.37223 14.377 9.52811 14.2512 9.65392C14.1254 9.77972 13.9695 9.84262 13.7835 9.84262H9.13969C8.98654 10.7834 8.54622 11.5656 7.81875 12.1891C7.09127 12.8127 6.23526 13.1245 5.25071 13.1245Z" fill="#945C01"/>
</g>
<g clip-path="url(#clip1_2520_400)">
<path d="M15.0297 12.0671C14.2562 11.2936 13.8694 10.3653 13.8694 9.28236C13.8694 8.19941 14.2562 7.27116 15.0297 6.49763C15.8033 5.72409 16.7315 5.33732 17.8145 5.33732C18.8974 5.33732 19.8257 5.72409 20.5992 6.49763C21.2954 7.19381 21.6802 8.01956 21.7537 8.97488C21.8272 9.9302 21.5854 10.7946 21.0285 11.5682L24.3122 14.8518C24.4437 14.9833 24.5094 15.138 24.5094 15.316C24.5094 15.4939 24.4437 15.6486 24.3122 15.7801C24.1807 15.9116 24.026 15.9773 23.848 15.9773C23.6701 15.9773 23.5154 15.9116 23.3839 15.7801L20.1003 12.4964C19.3267 13.0534 18.4623 13.2951 17.507 13.2216C16.5517 13.1481 15.7259 12.7633 15.0297 12.0671Z" fill="#2AC868"/>
<g clip-path="url(#clip2_2520_400)">
<path d="M15.0317 12.0681C14.2581 11.2945 13.8714 10.3663 13.8714 9.28334C13.8714 8.20038 14.2581 7.27214 15.0317 6.4986C15.8052 5.72506 16.7335 5.3383 17.8164 5.3383C18.8994 5.3383 19.8276 5.72506 20.6011 6.4986C21.2973 7.19478 21.6822 8.02054 21.7556 8.97585C21.8291 9.93117 21.5874 10.7956 21.0305 11.5691L24.3141 14.8528C24.4456 14.9843 24.5114 15.139 24.5114 15.3169C24.5114 15.4948 24.4456 15.6495 24.3141 15.781C24.1826 15.9126 24.0279 15.9783 23.85 15.9783C23.6721 15.9783 23.5174 15.9125 23.3859 15.781L20.1022 12.4974C19.3287 13.0543 18.4642 13.2961 17.5089 13.2226C16.5536 13.1491 15.7279 12.7643 15.0317 12.0681Z" fill="#945C01"/>
</g>
</g>
<path d="M25.5598 22.3159C26.6538 22.3159 27.5836 21.933 28.3494 21.1672C29.1152 20.4015 29.498 19.4716 29.498 18.3777C29.498 17.2837 29.1152 16.3539 28.3494 15.5881C27.5836 14.8223 26.6538 14.4395 25.5598 14.4395C24.5753 14.4395 23.7193 14.7512 22.9918 15.3748C22.2643 15.9983 21.824 16.7805 21.6709 17.7213H17.0271C16.8411 17.7213 16.6852 17.7842 16.5594 17.91C16.4336 18.0358 16.3707 18.1917 16.3707 18.3777C16.3707 18.5636 16.4336 18.7195 16.5594 18.8453C16.6852 18.9711 16.8411 19.034 17.0271 19.034H21.6709C21.824 19.9748 22.2643 20.757 22.9918 21.3805C23.7193 22.0041 24.5753 22.3159 25.5598 22.3159Z" fill="#2AC868"/>
<g clip-path="url(#clip3_2520_400)">
<path d="M25.5598 22.3149C26.6538 22.3149 27.5836 21.932 28.3494 21.1663C29.1152 20.4005 29.498 19.4706 29.498 18.3767C29.498 17.2827 29.1152 16.3529 28.3494 15.5871C27.5836 14.8214 26.6538 14.4385 25.5598 14.4385C24.5753 14.4385 23.7193 14.7503 22.9918 15.3738C22.2643 15.9974 21.824 16.7795 21.6709 17.7203H17.0271C16.8411 17.7203 16.6852 17.7832 16.5594 17.909C16.4336 18.0348 16.3707 18.1907 16.3707 18.3767C16.3707 18.5627 16.4336 18.7185 16.5594 18.8443C16.6852 18.9702 16.8411 19.0331 17.0271 19.0331H21.6709C21.824 19.9738 22.2643 20.756 22.9918 21.3796C23.7193 22.0031 24.5753 22.3149 25.5598 22.3149Z" fill="#945C01"/>
</g>
<g clip-path="url(#clip4_2520_400)">
<path d="M15.7808 21.2546C16.5544 20.4811 16.9411 19.5528 16.9411 18.4699C16.9411 17.3869 16.5544 16.4587 15.7808 15.6851C15.0073 14.9116 14.079 14.5248 12.9961 14.5248C11.9131 14.5248 10.9849 14.9116 10.2114 15.6851C9.51518 16.3813 9.13034 17.2071 9.05685 18.1624C8.98337 19.1177 9.2251 19.9821 9.78205 20.7557L6.49838 24.0393C6.36688 24.1708 6.30113 24.3255 6.30113 24.5035C6.30113 24.6814 6.36688 24.8361 6.49838 24.9676C6.62988 25.0991 6.78459 25.1648 6.9625 25.1648C7.14042 25.1648 7.29512 25.0991 7.42662 24.9676L10.7103 21.6839C11.4838 22.2409 12.3483 22.4826 13.3036 22.4091C14.2589 22.3356 15.0846 21.9508 15.7808 21.2546Z" fill="#2AC868"/>
<g clip-path="url(#clip5_2520_400)">
<path d="M15.7789 21.2556C16.5524 20.482 16.9392 19.5538 16.9392 18.4708C16.9392 17.3879 16.5524 16.4596 15.7789 15.6861C15.0053 14.9126 14.0771 14.5258 12.9941 14.5258C11.9112 14.5258 10.9829 14.9126 10.2094 15.6861C9.51322 16.3823 9.12839 17.208 9.0549 18.1634C8.98142 19.1187 9.22315 19.9831 9.78009 20.7566L6.49643 24.0403C6.36493 24.1718 6.29918 24.3265 6.29918 24.5044C6.29918 24.6823 6.36493 24.837 6.49643 24.9685C6.62793 25.1001 6.78264 25.1658 6.96055 25.1658C7.13846 25.1658 7.29317 25.1 7.42467 24.9685L10.7083 21.6849C11.4819 22.2418 12.3463 22.4836 13.3016 22.4101C14.2569 22.3366 15.0827 21.9518 15.7789 21.2556Z" fill="#945C01"/>
</g>
</g>
<path d="M25.5598 26.8746C26.6538 26.8746 27.5836 27.2574 28.3494 28.0232C29.1152 28.789 29.498 29.7188 29.498 30.8128C29.498 31.9067 29.1152 32.8366 28.3494 33.6023C27.5836 34.3681 26.6538 34.751 25.5598 34.751C24.5753 34.751 23.7193 34.4392 22.9918 33.8157C22.2643 33.1921 21.824 32.4099 21.6709 31.4691H17.0271C16.8411 31.4691 16.6852 31.4062 16.5594 31.2804C16.4336 31.1546 16.3707 30.9987 16.3707 30.8128C16.3707 30.6268 16.4336 30.4709 16.5594 30.3451C16.6852 30.2193 16.8411 30.1564 17.0271 30.1564H21.6709C21.824 29.2156 22.2643 28.4334 22.9918 27.8099C23.7193 27.1863 24.5753 26.8746 25.5598 26.8746Z" fill="#2AC868"/>
<g clip-path="url(#clip6_2520_400)">
<path d="M25.5598 26.8755C26.6538 26.8755 27.5836 27.2584 28.3494 28.0242C29.1152 28.7899 29.498 29.7198 29.498 30.8137C29.498 31.9077 29.1152 32.8375 28.3494 33.6033C27.5836 34.3691 26.6538 34.752 25.5598 34.752C24.5753 34.752 23.7193 34.4402 22.9918 33.8166C22.2643 33.1931 21.824 32.4109 21.6709 31.4701H17.0271C16.8411 31.4701 16.6852 31.4072 16.5594 31.2814C16.4336 31.1556 16.3707 30.9997 16.3707 30.8137C16.3707 30.6278 16.4336 30.4719 16.5594 30.3461C16.6852 30.2203 16.8411 30.1574 17.0271 30.1574H21.6709C21.824 29.2166 22.2643 28.4344 22.9918 27.8109C23.7193 27.1873 24.5753 26.8755 25.5598 26.8755Z" fill="#945C01"/>
</g>
<g clip-path="url(#clip7_2520_400)">
<path d="M15.7808 27.9329C16.5544 28.7064 16.9411 29.6347 16.9411 30.7176C16.9411 31.8006 16.5544 32.7288 15.7808 33.5024C15.0073 34.2759 14.079 34.6627 12.9961 34.6627C11.9131 34.6627 10.9849 34.2759 10.2114 33.5024C9.51518 32.8062 9.13034 31.9804 9.05685 31.0251C8.98337 30.0698 9.2251 29.2054 9.78205 28.4318L6.49838 25.1482C6.36688 25.0167 6.30113 24.862 6.30113 24.684C6.30113 24.5061 6.36688 24.3514 6.49838 24.2199C6.62988 24.0884 6.78459 24.0227 6.9625 24.0227C7.14042 24.0227 7.29512 24.0884 7.42662 24.2199L10.7103 27.5036C11.4838 26.9466 12.3483 26.7049 13.3036 26.7784C14.2589 26.8519 15.0846 27.2367 15.7808 27.9329Z" fill="#2AC868"/>
<g clip-path="url(#clip8_2520_400)">
<path d="M15.7789 27.9319C16.5524 28.7055 16.9392 29.6337 16.9392 30.7167C16.9392 31.7996 16.5524 32.7279 15.7789 33.5014C15.0053 34.2749 14.0771 34.6617 12.9941 34.6617C11.9112 34.6617 10.9829 34.2749 10.2094 33.5014C9.51322 32.8052 9.12839 31.9795 9.0549 31.0241C8.98142 30.0688 9.22315 29.2044 9.78009 28.4309L6.49643 25.1472C6.36493 25.0157 6.29918 24.861 6.29918 24.6831C6.29918 24.5052 6.28335 24.3505 6.41485 24.219C6.54635 24.0875 6.78264 24.0217 6.96055 24.0217C7.13846 24.0217 7.29317 24.0875 7.42467 24.219L10.7083 27.5026C11.4819 26.9457 12.3463 26.7039 13.3016 26.7774C14.2569 26.8509 15.0827 27.2357 15.7789 27.9319Z" fill="#945C01"/>
</g>
</g>
<defs>
<clipPath id="clip0_2520_400">
<rect width="5.25095" height="1.31274" fill="white" transform="translate(9.18945 8.53027)"/>
</clipPath>
<clipPath id="clip1_2520_400">
<rect width="15.7528" height="15.7528" fill="white" transform="translate(19.6719) rotate(45)"/>
</clipPath>
<clipPath id="clip2_2520_400">
<rect width="5.25095" height="1.31274" fill="white" transform="translate(21.0645 11.6035) rotate(45)"/>
</clipPath>
<clipPath id="clip3_2520_400">
<rect width="5.25095" height="1.31274" fill="white" transform="matrix(-1 0 0 1 21.6211 17.7207)"/>
</clipPath>
<clipPath id="clip4_2520_400">
<rect width="15.7528" height="15.7528" fill="white" transform="matrix(-0.707107 0.707107 0.707107 0.707107 11.1387 9.1875)"/>
</clipPath>
<clipPath id="clip5_2520_400">
<rect width="5.25095" height="1.31274" fill="white" transform="matrix(-0.707107 0.707107 0.707107 0.707107 9.74609 20.791)"/>
</clipPath>
<clipPath id="clip6_2520_400">
<rect width="5.25095" height="1.31274" fill="white" transform="matrix(-1 0 0 -1 21.6211 31.4697)"/>
</clipPath>
<clipPath id="clip7_2520_400">
<rect width="15.7528" height="15.7528" fill="white" transform="translate(11.1387 40) rotate(-135)"/>
</clipPath>
<clipPath id="clip8_2520_400">
<rect width="5.25095" height="1.31274" fill="white" transform="translate(9.74609 28.3965) rotate(-135)"/>
</clipPath>
</defs>
</svg>
